<?xml version="1.0" encoding="UTF-8" standalone="no"?>
<svg height="16px" viewBox="0 0 16 16" width="16px" xmlns="http://www.w3.org/2000/svg">
  <path d="m 5.4824219,0.04296875 c -0.8305334,0 -1.3945313,0.77854185 -1.3945313,1.60546875 V 2.5039063 C 3.1423939,3.0061001 2.4511719,3.948257 2.4511719,5.1210937 v 5.7578123 c 0,1.172837 0.691222,2.114994 1.6367187,2.617188 v 0.855469 c 0,0.826927 0.5639986,1.605468 1.3945313,1.605468 h 5.0351561 c 0.830532,0 1.394531,-0.778541 1.394531,-1.605468 v -0.855469 c 0.945497,-0.502194 1.636719,-1.444351 1.636719,-2.617188 V 5.1210937 c 0,-1.1728365 -0.691222,-2.1149936 -1.636719,-2.6171874 V 1.6484375 c 0,-0.82692753 -0.563998,-1.60546875 -1.394531,-1.60546875 z m 0,1.03124995 h 5.0351561 c 0.143214,0 0.361328,0.1926003 0.361328,0.5742188 v 1.0761719 a 0.51592156,0.51592156 0 0 0 0.351563,0.4902344 c 0.730589,0.2462827 1.287109,0.9880713 1.287109,1.9062499 v 5.7578123 c 0,0.918179 -0.55652,1.659968 -1.287109,1.90625 a 0.51592156,0.51592156 0 0 0 -0.351563,0.490235 v 1.076172 c 0,0.381619 -0.218113,0.574218 -0.361328,0.574218 H 5.4824219 c -0.1432176,0 -0.3613281,-0.192599 -0.3613282,-0.574218 V 13.275391 A 0.51592156,0.51592156 0 0 0 4.7695312,12.785156 C 4.0389418,12.538874 3.4824219,11.797085 3.4824219,10.878906 V 5.1210937 c 0,-0.9181784 0.5565198,-1.6599672 1.2871093,-1.9062499 A 0.51592156,0.51592156 0 0 0 5.1210937,2.7246094 V 1.6484375 c 0,-0.3816191 0.2181113,-0.5742188 0.3613282,-0.5742188 z" fill="#2e3434" fill-opacity="1" />
  <path d="m 5.3046875,1.9492187 c -1.8408041,10e-8 -3.3535156,1.5146644 -3.3535156,3.3554688 v 5.3906255 c 0,1.840804 1.5127109,3.353515 3.3535156,3.353515 h 5.3925785 c 1.840804,0 3.353515,-1.512711 3.353515,-3.353515 V 5.3046875 c 0,-1.8408049 -1.512711,-3.3554687 -3.353515,-3.3554688 z m 0,2.0000001 h 5.3925785 c 0.767399,0 1.353515,0.5880694 1.353515,1.3554687 v 5.3906255 c 0,0.767398 -0.586117,1.353515 -1.353515,1.353515 H 5.3046875 c -0.7673987,0 -1.3535156,-0.586116 -1.3535156,-1.353515 V 5.3046875 c 0,-0.7673998 0.5861163,-1.3554687 1.3535156,-1.3554687 z" fill="#2e3434" fill-opacity="1" />
</svg>
